<?xml version="1.0" encoding="UTF-8"?>
<svg id="Capa_1" xmlns="http://www.w3.org/2000/svg" version="1.1" viewBox="0 0 259 155">
  <!-- Generator: Adobe Illustrator 29.3.1, SVG Export Plug-In . SVG Version: 2.1.0 Build 151)  -->
  <defs>
    <style>
      .st0 {
        fill: #fff;
      }
    </style>
  </defs>
  <g>
    <line class="st0" x1="117.76" y1="91.34" x2="117.88" y2="91.32"/>
    <path class="st0" d="M117.76,91.34v.95l-.69-.02c-1.64-.05-2.63-.08-3.23-.14l-.07.02c-.54.11-1.08.4-1.08,1.71v32.94c0,4.03.57,4.74.69,4.83.22.2,1.14.65,4.9.65h.68v4.16h-20.04v-4.16h.68c3.01,0,3.56-.14,3.64-.18.74-.2,1.08-1,1.08-2.37v-31.48c0-4.56-.45-5.31-.54-5.41-.05-.05-.65-.57-4.83-.57h-.68v-4.16h19.49v3.23Z"/>
    <path class="st0" d="M157.58,92.28h.68c3.91,0,5.26.73,5.7,1.32.28.42.75,1.82.75,6.51v22.17c-13.15-15.4-22.73-26.5-29.27-33.93l-.2-.23h-12.65v4.16h.68c3.64,0,4.81.51,5.19.82.29.24.95,1.18.95,4.88v29.59c0,2.5-.52,3.49-.96,3.87-.45.4-1.53.86-4.09.86h-.68v4.16h19.18v-4.16h-.68c-3.32,0-5.52-.58-6.38-1.69-.43-.55-.93-2.1-.93-6.31v-24.2c16.18,18.52,26.98,30.68,32.09,36.13l.3.33,2.71-.94v-38.95c0-1.72.33-2.9.96-3.48.65-.6,1.99-.91,3.87-.91h.68v-4.16h-17.88v4.16Z"/>
    <path class="st0" d="M215.3,126.26l-.15.43c-.79,2.31-2.79,3.83-6.09,4.64-1.86.4-5.69.63-10.24.63-3.38,0-4.4-.65-4.71-1.05-.4-.5-.87-1.8-.87-5.19v-12.82h6.27c3.23,0,3.9.48,4.03.64.14.15.58.9.48,3.96l-.02.69h4.72v-15.28h-4.72l.02.69c.09,2.91-.54,3.63-.81,3.81-.49.32-1.75.69-4.95.69h-5.02v-15.56c.09-.03.25-.04.51-.04h8.89c2.57,0,4.34.35,5.26,1.05.94.72,1.94,2.33,2.96,4.8l.26.64,3.52-1.54v-9.33h-35.83v4.16h.68c3.86,0,4.69.45,4.85.59.11.09.63.73.63,4.33v32.21c0,1.67-.37,2.21-.59,2.36-.32.24-1.03.52-2.62.52h-2.19v4.16h36.62l.13-.5c1.12-4.17,1.92-7.09,2.49-8.95l.27-.91-3.79.18Z"/>
    <path class="st0" d="M116.5,76.28c-3.76-4.04-8.53-9.85-14.17-17.28,6.45-2.12,9.72-6.3,9.72-12.43,0-8.6-5.97-12.96-17.75-12.96h-18.93v4.05h.68c3.8,0,4.78.73,5.01,1.13.08.18.36,1.13.36,6.18v29.7c0,1.09-.18,2.46-1.03,2.86-.08.04-.68.25-3.7.25h-.68v4.16h20.69v-4.16h-.68c-4.64,0-5.42-.33-5.52-.4-.12-.1-.72-.81-.72-5.55v-11.5h3.83c7.59,11.13,7.78,11.33,7.8,11.35,3.62,4.88,6.8,8.29,9.44,10.13l.18.12h10.61v-4.08l-.6-.07c-2.92-.34-4.09-1.01-4.55-1.52ZM99.54,53.91c-2.33,1.51-5.04,2.28-8.05,2.28-.44,0-1.02-.04-1.7-.13v-18.28h2.54c3.19,0,5.84.76,7.84,2.24,2.21,1.76,3.28,4.11,3.28,7.18,0,2.82-1.27,5.02-3.9,6.71Z"/>
    <path class="st0" d="M143.28,32.43c-7.28,0-13.54,2.51-18.61,7.46-5.08,4.97-7.66,11.16-7.66,18.43s2.43,12.95,7.23,17.52c4.78,4.55,10.79,6.86,17.85,6.86s13.6-2.5,18.57-7.41c4.97-4.94,7.49-11.15,7.49-18.48s-2.42-12.86-7.18-17.46c-4.75-4.6-10.7-6.93-17.7-6.93ZM159.13,58.54c0,5.57-1.24,10.2-3.67,13.73-2.84,4.08-6.79,6.06-12.08,6.06s-9.67-2.27-12.95-6.93c-2.93-4.18-4.41-9.2-4.41-14.92s1.3-10.08,3.86-13.61c2.88-3.96,6.98-5.97,12.2-5.97s9.52,2.26,12.74,6.93c2.86,4.1,4.31,9.04,4.31,14.69Z"/>
    <path class="st0" d="M195.14,56.92c-3.6-1.95-7.2-3.89-10.79-5.83-3.69-2.06-5.48-4.33-5.48-6.97,0-2.26.75-3.96,2.29-5.19,1.55-1.27,3.5-1.91,5.78-1.91s3.99.4,5.05,1.21c1.08.82,2.08,2.34,2.97,4.53l.3.74,3.31-2.05-.86-7.84-.49-.09c-3.84-.73-6.71-1.09-8.77-1.09-4.52,0-8.39,1.13-11.5,3.36-3.71,2.58-5.59,6.11-5.59,10.49,0,4.11,2.03,7.54,6.09,10.2,3.6,1.95,7.17,3.86,10.65,5.7,3.63,2.27,5.4,4.9,5.4,8.07,0,2.61-.9,4.57-2.76,5.99-1.88,1.45-4.21,2.18-6.93,2.18-4.79,0-8.22-2.75-10.5-8.43l-.32-.79-3.3,2.35.05.4c.43,3.44.79,6.07,1.08,7.8l.05.33.3.15c3.48,1.78,7.61,2.67,12.3,2.67s8.64-1.28,12.07-3.81c3.84-2.86,5.78-6.6,5.78-11.13s-2.06-8.17-6.19-11.07Z"/>
    <path class="st0" d="M229.4,56.92c-3.6-1.95-7.21-3.89-10.8-5.83-3.68-2.06-5.48-4.33-5.48-6.97,0-2.26.75-3.96,2.29-5.19,1.56-1.27,3.51-1.91,5.78-1.91s3.99.4,5.05,1.21c1.08.82,2.07,2.34,2.96,4.53l.3.74,3.31-2.05-.86-7.84-.49-.09c-3.83-.73-6.7-1.09-8.76-1.09-4.52,0-8.39,1.13-11.5,3.36-3.71,2.58-5.59,6.11-5.59,10.49,0,4.11,2.03,7.54,6.08,10.2,3.6,1.95,7.17,3.86,10.65,5.7,3.64,2.27,5.41,4.9,5.41,8.07,0,2.61-.9,4.57-2.76,5.99-1.88,1.45-4.21,2.18-6.93,2.18-4.78,0-8.22-2.75-10.5-8.43l-.32-.79-3.3,2.35.05.4c.43,3.44.79,6.07,1.08,7.8l.06.33.3.15c3.48,1.78,7.61,2.67,12.3,2.67s8.64-1.28,12.07-3.81c3.83-2.86,5.78-6.6,5.78-11.13s-2.07-8.17-6.19-11.07Z"/>
    <path class="st0" d="M93.54,123.92l-.15.45c-1.1,3.3-4.2,5.55-9.22,6.68-3.03.71-7.67,1.07-13.8,1.07-4.05,0-6.67-.74-7.77-2.21-.58-.77-1.26-2.76-1.26-7.8v-41.31c5.74-2.62,10.12-7.01,13.14-13.34l.47-.98-7.2.14-.15.46c-2.71,8.21-9.52,10.87-14.14,11.74-.23.03-.41.08-.65.11l-.64.06v.06c-1.29.17-2.35.22-2.88.22-8.53,0-15.61-3.22-21.06-9.56-5.15-6.05-7.76-13.53-7.76-22.24s2.67-15.88,7.93-21.57c5.25-5.67,12.25-8.54,20.79-8.54,4.37,0,8.31.77,11.7,2.31,4.3,1.97,6.64,4.71,7.14,8.38l.08.59h3.15v-10.83l-.42-.18c-7.25-2.99-14.56-4.51-21.74-4.51-10.75,0-19.91,3.5-27.2,10.39-7.5,7.02-11.3,15.98-11.3,26.62s3.54,18.49,10.52,24.67c6.69,5.89,15.3,8.88,25.59,8.88,1.96,0,3.8-.15,5.57-.37v43.05c0,3.4-.52,4.54-.83,4.9-.5.57-1.77,1.25-5.04,1.25h-1.77v3.93h49.61l.13-.51c1.32-5.27,2.26-8.86,2.96-11.27l.26-.9-4.07.15Z"/>
  </g>
  <g>
    <path class="st0" d="M240.65,19.48c-3.83,0-6.95,3.12-6.95,6.95s3.12,6.95,6.95,6.95,6.95-3.12,6.95-6.95-3.12-6.95-6.95-6.95ZM240.65,32.48c-3.34,0-6.06-2.72-6.06-6.06s2.72-6.06,6.06-6.06,6.06,2.72,6.06,6.06-2.72,6.06-6.06,6.06Z"/>
    <g>
      <path class="st0" d="M236.11,23.89h1.14l1.27,3.61h.02l1.24-3.61h1.12v4.61h-.77v-3.56h0l-1.28,3.56h-.66l-1.28-3.56h0v3.56h-.77v-4.61Z"/>
      <path class="st0" d="M241.88,23.89h2.2c1.01,0,1.53.47,1.53,1.25,0,.88-.62,1.11-.76,1.16h0c.27.05.69.26.69.99,0,.54.08,1.02.25,1.21h-.86c-.12-.2-.12-.45-.12-.68,0-.85-.18-1.22-.91-1.22h-1.19v1.9h-.81v-4.61ZM242.69,25.99h1.32c.51,0,.79-.25.79-.74,0-.58-.39-.7-.8-.7h-1.31v1.44Z"/>
    </g>
  </g>
</svg>