<?xml version="1.0" encoding="utf-8"?>
<!-- Generator: Adobe Illustrator 16.0.3, SVG Export Plug-In . SVG Version: 6.00 Build 0)  -->
<!DOCTYPE svg PUBLIC "-//W3C//DTD SVG 1.1 Basic//EN" "http://www.w3.org/Graphics/SVG/1.1/DTD/svg11-basic.dtd">
<svg version="1.1" baseProfile="basic" id="Capa_1" xmlns="http://www.w3.org/2000/svg" xmlns:xlink="http://www.w3.org/1999/xlink"
	 x="0px" y="0px" width="259px" height="155px" viewBox="0 0 259 155" xml:space="preserve">
<g>
	<line fill="#00ADEE" x1="117.756" y1="91.345" x2="117.876" y2="91.32"/>
	<path fill="#00ADEE" d="M117.756,91.345v0.483v0.467l-0.694-0.019c-1.639-0.053-2.628-0.079-3.226-0.14l-0.075,0.017
		c-0.536,0.114-1.077,0.396-1.077,1.714v32.941c0,4.025,0.571,4.737,0.686,4.834c0.22,0.202,1.138,0.65,4.904,0.65h0.677v4.157
		H98.912v-4.157h0.677c3.006,0,3.56-0.141,3.639-0.176c0.738-0.201,1.081-1.002,1.081-2.373V98.262c0-4.562-0.448-5.309-0.536-5.414
		c-0.053-0.053-0.646-0.571-4.834-0.571h-0.677v-4.157h19.494v2.256V91.345z"/>
	<path fill="#00ADEE" d="M157.579,92.276h0.677c3.911,0,5.265,0.729,5.699,1.318c0.281,0.422,0.752,1.819,0.752,6.513v22.175
		c-13.148-15.398-22.732-26.499-29.271-33.935l-0.203-0.229h-12.651v4.157h0.677c3.643,0,4.812,0.51,5.186,0.817
		c0.286,0.237,0.949,1.178,0.949,4.878v29.593c0,2.505-0.523,3.489-0.962,3.867c-0.453,0.396-1.534,0.861-4.091,0.861h-0.677v4.157
		h19.178v-4.157h-0.677c-3.317,0-5.524-0.58-6.381-1.688c-0.427-0.554-0.932-2.101-0.932-6.311v-24.196
		c16.185,18.519,26.982,30.683,32.089,36.132l0.299,0.325l2.707-0.94V96.662c0-1.723,0.325-2.9,0.963-3.48
		c0.65-0.598,1.99-0.905,3.871-0.905h0.677v-4.157h-17.877V92.276z"/>
	<path fill="#00ADEE" d="M215.297,126.264l-0.149,0.431c-0.791,2.312-2.795,3.832-6.091,4.641
		c-1.863,0.396-5.687,0.633-10.239,0.633c-3.38,0-4.399-0.65-4.711-1.046c-0.396-0.501-0.87-1.802-0.87-5.193v-12.824h6.271
		c3.229,0,3.897,0.483,4.029,0.642c0.141,0.149,0.58,0.896,0.483,3.955l-0.018,0.694h4.72v-15.284h-4.72l0.018,0.694
		c0.088,2.909-0.536,3.63-0.809,3.806c-0.492,0.317-1.749,0.686-4.952,0.686h-5.023V92.541c0.088-0.027,0.25-0.045,0.51-0.045h8.886
		c2.566,0,4.342,0.352,5.265,1.046c0.94,0.721,1.942,2.329,2.962,4.799l0.264,0.642l3.524-1.538v-9.325h-35.833v4.157h0.677
		c3.863,0,4.689,0.448,4.848,0.589c0.105,0.088,0.628,0.729,0.628,4.334v32.211c0,1.67-0.369,2.206-0.589,2.364
		c-0.316,0.237-1.028,0.519-2.619,0.519h-2.188v4.157h36.624l0.132-0.501c1.116-4.166,1.925-7.093,2.487-8.947l0.272-0.914
		L215.297,126.264z"/>
	<path fill="#00ADEE" d="M116.499,76.28c-3.762-4.043-8.53-9.853-14.172-17.279c6.447-2.118,9.716-6.302,9.716-12.427
		c0-8.596-5.972-12.956-17.745-12.956H75.366v4.052h0.677c3.801,0,4.781,0.729,5.014,1.134c0.083,0.176,0.365,1.134,0.365,6.179
		v29.698c0,1.09-0.176,2.461-1.028,2.856c-0.083,0.044-0.677,0.255-3.7,0.255h-0.677v4.157h20.689v-4.157h-0.677
		c-4.641,0-5.418-0.334-5.524-0.396c-0.119-0.097-0.716-0.809-0.716-5.555V60.346h3.828c7.589,11.127,7.778,11.329,7.805,11.347
		c3.621,4.878,6.803,8.288,9.444,10.134l0.176,0.123h10.608v-4.078l-0.598-0.07C118.129,77.458,116.965,76.791,116.499,76.28z
		 M99.545,53.912c-2.333,1.512-5.041,2.276-8.051,2.276c-0.444,0-1.015-0.044-1.705-0.131V37.775h2.54
		c3.195,0,5.84,0.756,7.84,2.241c2.206,1.758,3.278,4.113,3.278,7.181C103.447,50.019,102.173,52.216,99.545,53.912z"/>
	<path fill="#00ADEE" d="M143.275,32.432c-7.282,0-13.544,2.513-18.611,7.461c-5.08,4.966-7.66,11.162-7.66,18.431
		c0,7.058,2.435,12.946,7.233,17.517c4.781,4.553,10.789,6.864,17.85,6.864c7.353,0,13.602-2.496,18.572-7.409
		c4.97-4.939,7.488-11.153,7.488-18.483c0-6.987-2.418-12.858-7.177-17.455C156.226,34.761,150.271,32.432,143.275,32.432z
		 M159.131,58.535c0,5.572-1.235,10.195-3.666,13.729c-2.843,4.078-6.793,6.064-12.076,6.064c-5.432,0-9.668-2.268-12.945-6.925
		c-2.932-4.184-4.413-9.203-4.413-14.916c0-5.502,1.296-10.081,3.858-13.605c2.878-3.964,6.978-5.968,12.199-5.968
		c5.357,0,9.523,2.259,12.736,6.926C157.685,47.944,159.131,52.884,159.131,58.535z"/>
	<path fill="#00ADEE" d="M195.139,56.918c-3.604-1.951-7.197-3.894-10.793-5.827c-3.687-2.057-5.479-4.333-5.479-6.97
		c0-2.259,0.747-3.955,2.29-5.194c1.555-1.266,3.498-1.907,5.778-1.907c2.294,0,3.99,0.404,5.05,1.213
		c1.085,0.817,2.082,2.338,2.966,4.526l0.299,0.738l3.31-2.048l-0.857-7.84l-0.488-0.088c-3.836-0.729-6.705-1.089-8.767-1.089
		c-4.522,0-8.394,1.133-11.505,3.357c-3.709,2.575-5.59,6.108-5.59,10.494c0,4.113,2.03,7.541,6.086,10.204
		c3.596,1.951,7.168,3.858,10.652,5.704c3.635,2.268,5.401,4.904,5.401,8.068c0,2.61-0.901,4.57-2.76,5.994
		c-1.881,1.45-4.21,2.18-6.926,2.18c-4.786,0-8.218-2.751-10.499-8.429l-0.32-0.791l-3.296,2.347l0.053,0.404
		c0.427,3.445,0.791,6.073,1.085,7.804l0.053,0.334l0.304,0.149c3.476,1.775,7.611,2.672,12.296,2.672
		c4.579,0,8.64-1.283,12.067-3.806c3.837-2.856,5.783-6.601,5.783-11.127C201.331,63.528,199.27,59.818,195.139,56.918z"/>
	<path fill="#00ADEE" d="M229.403,56.918c-3.604-1.951-7.207-3.894-10.802-5.827c-3.683-2.057-5.476-4.333-5.476-6.97
		c0-2.259,0.747-3.955,2.285-5.194c1.556-1.266,3.507-1.907,5.783-1.907c2.294,0,3.99,0.404,5.054,1.213
		c1.081,0.817,2.074,2.338,2.962,4.526l0.299,0.738l3.313-2.048l-0.861-7.84l-0.492-0.088c-3.832-0.729-6.697-1.089-8.763-1.089
		c-4.518,0-8.394,1.133-11.505,3.357c-3.709,2.575-5.59,6.108-5.59,10.494c0,4.113,2.03,7.541,6.082,10.204
		c3.604,1.951,7.172,3.858,10.652,5.704c3.639,2.268,5.405,4.904,5.405,8.068c0,2.61-0.896,4.57-2.76,5.994
		c-1.881,1.45-4.21,2.18-6.926,2.18c-4.781,0-8.218-2.751-10.503-8.429l-0.316-0.791l-3.296,2.347l0.053,0.404
		c0.431,3.445,0.791,6.073,1.081,7.804l0.062,0.334l0.299,0.149c3.48,1.775,7.611,2.672,12.296,2.672
		c4.579,0,8.64-1.283,12.067-3.806c3.832-2.856,5.783-6.601,5.783-11.127C235.591,63.528,233.525,59.818,229.403,56.918z"/>
	<path fill="#00ADEE" d="M93.542,123.917l-0.149,0.448c-1.099,3.305-4.197,5.555-9.215,6.68c-3.028,0.712-7.668,1.072-13.803,1.072
		c-4.052,0-6.667-0.738-7.77-2.206c-0.576-0.773-1.257-2.76-1.257-7.805V80.801c5.742-2.615,10.116-7.005,13.135-13.345l0.47-0.984
		l-7.203,0.141l-0.149,0.457c-2.712,8.212-9.524,10.866-14.145,11.74c-0.233,0.027-0.41,0.084-0.651,0.107l-0.642,0.062l0.003,0.059
		c-1.294,0.172-2.355,0.223-2.886,0.223c-8.53,0-15.614-3.217-21.063-9.563c-5.146-6.047-7.756-13.526-7.756-22.236
		c0-8.631,2.667-15.882,7.932-21.568c5.251-5.669,12.248-8.543,20.791-8.543c4.373,0,8.306,0.774,11.698,2.312
		c4.302,1.969,6.636,4.711,7.137,8.385l0.079,0.589h3.146V17.807l-0.417-0.176c-7.247-2.988-14.563-4.509-21.74-4.509
		c-10.753,0-19.907,3.498-27.198,10.389c-7.497,7.022-11.298,15.978-11.298,26.622c0,10.195,3.542,18.492,10.525,24.671
		c6.693,5.889,15.302,8.877,25.589,8.877c1.959,0,3.797-0.146,5.572-0.37v43.05c0,3.401-0.523,4.535-0.826,4.904
		c-0.497,0.571-1.771,1.248-5.036,1.248h-1.767v3.929h49.614l0.127-0.51c1.323-5.273,2.263-8.859,2.962-11.268l0.264-0.896
		L93.542,123.917z"/>
</g>
<g>
	<path fill="#00ADEE" d="M240.653,19.477c-3.832,0-6.952,3.12-6.952,6.952c0,3.833,3.12,6.952,6.952,6.952s6.952-3.12,6.952-6.952
		C247.605,22.597,244.485,19.477,240.653,19.477z M240.653,32.484c-3.34,0-6.056-2.716-6.056-6.056s2.716-6.055,6.056-6.055
		s6.056,2.715,6.056,6.055S243.993,32.484,240.653,32.484z"/>
	<g>
		<path fill="#00ADEE" d="M236.108,23.888h1.143l1.266,3.608h0.018l1.239-3.608h1.125v4.61h-0.773v-3.555h-0.009l-1.283,3.555
			h-0.659l-1.283-3.555h-0.009v3.555h-0.773V23.888z"/>
		<path fill="#00ADEE" d="M241.883,23.888h2.197c1.011,0,1.529,0.466,1.529,1.248c0,0.883-0.615,1.107-0.765,1.16v0.013
			c0.272,0.04,0.686,0.246,0.686,0.976c0,0.536,0.079,1.024,0.246,1.213h-0.861c-0.123-0.202-0.123-0.453-0.123-0.677
			c0-0.848-0.176-1.222-0.914-1.222h-1.187v1.898h-0.809V23.888z M242.691,25.988h1.318c0.51,0,0.791-0.255,0.791-0.738
			c0-0.584-0.387-0.703-0.8-0.703h-1.31V25.988z"/>
	</g>
</g>
</svg>
