<?xml version="1.0" encoding="utf-8"?>
<!-- Generator: Adobe Illustrator 25.2.1, SVG Export Plug-In . SVG Version: 6.00 Build 0)  -->
<svg version="1.1" id="Capa_1" xmlns="http://www.w3.org/2000/svg" xmlns:xlink="http://www.w3.org/1999/xlink" x="0px" y="0px"
	 viewBox="0 0 162.8 105.1" style="enable-background:new 0 0 162.8 105.1;" xml:space="preserve">
<style type="text/css">
	.st0{fill:#249AD6;}
</style>
<g>
	<g>
		<path class="st0" d="M54.3,2.5v19.3h-3.1c0,0-6.8-16.1-20.5-16.1S13.5,15.7,13.5,27.9s3,24.7,16.4,24.7s21.6-15.1,21.6-16.2h2.4
			v19.1h-1.8l-2.8-3.5h-1.7l-11.1,3c0,0,0,38.7,0,40.2s-0.4,4.3,3.9,4.3s6.9,0,9.3,0s11.4-1.7,16.6-12.7h3l-4.3,15.7H17.8v-3
			c0,0,2.8,0,3.7,0c0.9,0,3.6,0.4,3.6-4.4s0-39.4,0-39.4S1.5,51.3,1.5,28.7c0-5.6,3.8-26.9,28.3-26.9c9.8,0,13.8,3.5,18,3.5
			s4-2.8,4-2.8H54.3z"/>
		<path class="st0" d="M83.3,52.2l-6.5-10.6c0,0,4.8-1.5,4.8-5.6c0-4.1-3.9-7.7-9.3-7.7s-14,0-14,0v2h3v21.4h-3V54H71v-1.8h-3.5
			V41.9h3L77,54h9.3v-1.8H83.3z M70.9,40c-1.1,0-3.5,0-3.5,0v-9.8c0,0,1.4,0,3.5,0c2,0,4.6,1.6,4.6,5.4C75.5,39.4,72,40,70.9,40z"/>
		<path class="st0" d="M100.8,27.9c-7.7,0-13.9,5.7-13.9,13.7c0,8,8,13.2,13.9,13.2s13.4-5.3,13.4-13.4
			C114.2,34.2,108.3,27.9,100.8,27.9z M100.6,52.6c-4,0-7.1-4.3-7.1-11.4s3.4-11.3,7.1-11.3c4.1,0,7.3,4.7,7.3,11.5
			S104.6,52.6,100.6,52.6z"/>
		<path class="st0" d="M134.7,37.7h-1.9c0,0-2.1-7.8-7.5-7.8c-3,0-3.9,2-3.9,2.8c0,6.4,14.8,4.3,14.8,13.9c0,8.2-8.3,8.2-9.3,8.2
			c-3.5,0-5.6-1.3-6.7-1.3s-1.1,1.3-1.7,1.3s-1.7,0-1.7,0V44.7h1.5c0,0,2.5,7.9,8.2,7.9s5.2-2.9,5.2-3.5c0-5.5-14.9-4.4-14.9-13.8
			c0-7.3,6.3-7.5,8.6-7.5c2.3,0,4.9,1.2,6.2,1.2c1.4,0,1.7-1.2,1.7-1.2h1.4L134.7,37.7z"/>
		<path class="st0" d="M157.8,37.7h-1.9c0,0-2.1-7.8-7.5-7.8c-3,0-3.9,2-3.9,2.8c0,6.4,14.8,4.3,14.8,13.9c0,8.2-8.3,8.2-9.3,8.2
			c-3.5,0-5.6-1.3-6.7-1.3s-1.1,1.3-1.7,1.3s-1.7,0-1.7,0V44.7h1.5c0,0,2.5,7.9,8.2,7.9s5.2-2.9,5.2-3.5c0-5.5-14.9-4.4-14.9-13.8
			c0-7.3,6.3-7.5,8.6-7.5s4.9,1.2,6.2,1.2c1.4,0,1.7-1.2,1.7-1.2h1.4L157.8,37.7z"/>
		<polygon class="st0" points="71.3,76.7 71.3,78.9 74.7,78.9 74.7,100.5 71.3,100.5 71.3,103.3 84.7,103.3 84.7,100.5 81.3,100.5 
			81.3,79 84.7,79 84.7,76.7 		"/>
		<path class="st0" d="M86.2,100.7v2.7h10.3v-2.7c0,0-1.4,0-2,0s-2.2-0.2-2.2-2.3c0-2.1,0-16.5,0-16.5l19.8,21.5h2.3
			c0,0,0-21.7,0-22.3s-0.1-2,1.4-2c1.4,0,2.2,0,2.2,0v-2.3H108V79c0,0,1.4,0,2,0s1.9,0.2,1.9,2.2s0,12.1,0,12.1L96.8,76.7H86.5v2.2
			h3c0,0,0,18.2,0,19.1s-0.2,2.8-2.2,2.8L86.2,100.7z"/>
		<path class="st0" d="M119.4,76.7v2h2.5v21.9h-2.2v2.7h22.6l2.2-8l-1.8-1.1c0,0-4,6.2-7.4,6.2s-6.9,0-6.9,0v-10c0,0,1.8,0,3.1,0
			c1.3,0,4.9,1.1,4.9,5.5h2.2V83.2h-2c0,0-0.7,4.9-4.7,4.9h-3.4v-9.3c0,0,4.6,0,6.2,0s5.6,2.7,7.3,5.9L144,84l-3.2-7.3H119.4z"/>
	</g>
	<g>
		<g>
			<path class="st0" d="M148.6,76.8v-5.4h1.1l1.3,3.8c0.1,0.4,0.2,0.6,0.3,0.8c0.1-0.2,0.2-0.5,0.3-0.9l1.3-3.7h1v5.4H153v-4.5
				l-1.6,4.5h-0.6l-1.6-4.6v4.6H148.6z"/>
			<path class="st0" d="M154.9,76.8v-5.4h2.4c0.5,0,0.8,0,1.1,0.1c0.2,0.1,0.4,0.3,0.6,0.5c0.1,0.2,0.2,0.5,0.2,0.8
				c0,0.4-0.1,0.7-0.4,1c-0.2,0.3-0.6,0.4-1.1,0.5c0.2,0.1,0.3,0.2,0.4,0.3c0.2,0.2,0.4,0.4,0.6,0.7l0.9,1.5h-0.9l-0.7-1.1
				c-0.2-0.3-0.4-0.6-0.5-0.7c-0.1-0.2-0.3-0.3-0.4-0.4c-0.1-0.1-0.2-0.1-0.3-0.1c-0.1,0-0.2,0-0.4,0h-0.8v2.4H154.9z M155.6,73.8
				h1.5c0.3,0,0.6,0,0.8-0.1c0.2-0.1,0.3-0.2,0.4-0.3c0.1-0.1,0.1-0.3,0.1-0.5c0-0.3-0.1-0.5-0.3-0.6c-0.2-0.2-0.5-0.2-0.9-0.2h-1.7
				V73.8z"/>
		</g>
		<g>
			<path class="st0" d="M154,81.3c-4.1,0-7.4-3.3-7.4-7.4c0-4.1,3.3-7.4,7.4-7.4c4.1,0,7.4,3.3,7.4,7.4C161.4,78,158,81.3,154,81.3z
				 M154,67.4c-3.6,0-6.5,2.9-6.5,6.5s2.9,6.5,6.5,6.5c3.6,0,6.5-2.9,6.5-6.5S157.5,67.4,154,67.4z"/>
		</g>
	</g>
</g>
</svg>
